<svg width="32" height="32" viewBox="0 0 32 32" fill="none" xmlns="http://www.w3.org/2000/svg">
<path d="M1.41416 1.69848C2.1952 0.917436 3.46153 0.917436 4.24258 1.69848L29.6984 27.1543C30.4795 27.9354 30.4795 29.2017 29.6984 29.9828C28.9174 30.7638 27.651 30.7638 26.87 29.9828L1.41416 4.52691C0.633107 3.74586 0.633107 2.47953 1.41416 1.69848Z" fill="white"/>
<path d="M1.41421 29.6985C0.633165 28.9174 0.633165 27.6511 1.41421 26.8701L26.8701 1.41421C27.6511 0.633166 28.9174 0.633165 29.6985 1.41421C30.4795 2.19526 30.4795 3.46159 29.6985 4.24264L4.24264 29.6985C3.46159 30.4795 2.19526 30.4795 1.41421 29.6985Z" fill="white"/>
</svg>
