<svg width="183" height="55" viewBox="0 0 183 55" fill="none" xmlns="http://www.w3.org/2000/svg">
<g filter="url(#filter0_ddf_228_446)">
<rect x="18" y="32.8088" width="141" height="2" rx="1" fill="white"/>
<rect x="17.5" y="32.3088" width="142" height="3" rx="1.5" stroke="#FF39BC"/>
</g>
<g filter="url(#filter1_df_228_446)">
<rect x="155.068" y="24" width="14.0461" height="2" rx="1" transform="rotate(45 155.068 24)" fill="white"/>
<rect x="155.068" y="23.2929" width="15.0461" height="3" rx="1.5" transform="rotate(45 155.068 23.2929)" stroke="#FF39BC"/>
</g>
<g filter="url(#filter2_df_228_446)">
<rect x="153.654" y="41.9321" width="14.0461" height="2" rx="1" transform="rotate(-45 153.654 41.9321)" fill="white"/>
<rect x="152.947" y="41.9321" width="15.0461" height="3" rx="1.5" transform="rotate(-45 152.947 41.9321)" stroke="#FF39BC"/>
</g>
<rect x="153.654" y="42.3945" width="13.5927" height="2" rx="1" transform="rotate(-45 153.654 42.3945)" fill="#F9D9EE"/>
<rect x="155.068" y="24" width="14.0461" height="2" rx="1" transform="rotate(45 155.068 24)" fill="#F9D9EE"/>
<path d="M18 33.8088C18 33.2566 18.4477 32.8088 19 32.8088H158C158.552 32.8088 159 33.2566 159 33.8088V33.8088C159 34.3611 158.552 34.8088 158 34.8088H19C18.4477 34.8088 18 34.3611 18 33.8088V33.8088Z" fill="#FCCFEC"/>
<defs>
<filter id="filter0_ddf_228_446" x="0" y="8.80884" width="177" height="38" filterUnits="userSpaceOnUse" color-interpolation-filters="sRGB">
<feFlood flood-opacity="0" result="BackgroundImageFix"/>
<feColorMatrix in="SourceAlpha" type="matrix" values="0 0 0 0 0 0 0 0 0 0 0 0 0 0 0 0 0 0 127 0" result="hardAlpha"/>
<feOffset dy="-6"/>
<feGaussianBlur stdDeviation="8.5"/>
<feComposite in2="hardAlpha" operator="out"/>
<feColorMatrix type="matrix" values="0 0 0 0 1 0 0 0 0 0.225 0 0 0 0 0.7365 0 0 0 1 0"/>
<feBlend mode="normal" in2="BackgroundImageFix" result="effect1_dropShadow_228_446"/>
<feColorMatrix in="SourceAlpha" type="matrix" values="0 0 0 0 0 0 0 0 0 0 0 0 0 0 0 0 0 0 127 0" result="hardAlpha"/>
<feOffset dx="-7" dy="5"/>
<feGaussianBlur stdDeviation="2"/>
<feComposite in2="hardAlpha" operator="out"/>
<feColorMatrix type="matrix" values="0 0 0 0 0 0 0 0 0 0 0 0 0 0 0 0 0 0 0.88 0"/>
<feBlend mode="normal" in2="effect1_dropShadow_228_446" result="effect2_dropShadow_228_446"/>
<feBlend mode="normal" in="SourceGraphic" in2="effect2_dropShadow_228_446" result="shape"/>
<feGaussianBlur stdDeviation="0.5" result="effect3_foregroundBlur_228_446"/>
</filter>
<filter id="filter1_df_228_446" x="136.068" y="0.414307" width="46.5179" height="46.5178" filterUnits="userSpaceOnUse" color-interpolation-filters="sRGB">
<feFlood flood-opacity="0" result="BackgroundImageFix"/>
<feColorMatrix in="SourceAlpha" type="matrix" values="0 0 0 0 0 0 0 0 0 0 0 0 0 0 0 0 0 0 127 0" result="hardAlpha"/>
<feOffset dy="-6"/>
<feGaussianBlur stdDeviation="8.5"/>
<feComposite in2="hardAlpha" operator="out"/>
<feColorMatrix type="matrix" values="0 0 0 0 1 0 0 0 0 0.225 0 0 0 0 0.7365 0 0 0 1 0"/>
<feBlend mode="normal" in2="BackgroundImageFix" result="effect1_dropShadow_228_446"/>
<feBlend mode="normal" in="SourceGraphic" in2="effect1_dropShadow_228_446" result="shape"/>
<feGaussianBlur stdDeviation="1" result="effect2_foregroundBlur_228_446"/>
</filter>
<filter id="filter2_df_228_446" x="136.068" y="8.41431" width="46.5179" height="46.5178" filterUnits="userSpaceOnUse" color-interpolation-filters="sRGB">
<feFlood flood-opacity="0" result="BackgroundImageFix"/>
<feColorMatrix in="SourceAlpha" type="matrix" values="0 0 0 0 0 0 0 0 0 0 0 0 0 0 0 0 0 0 127 0" result="hardAlpha"/>
<feOffset dy="-6"/>
<feGaussianBlur stdDeviation="8.5"/>
<feComposite in2="hardAlpha" operator="out"/>
<feColorMatrix type="matrix" values="0 0 0 0 1 0 0 0 0 0.225 0 0 0 0 0.7365 0 0 0 1 0"/>
<feBlend mode="normal" in2="BackgroundImageFix" result="effect1_dropShadow_228_446"/>
<feBlend mode="normal" in="SourceGraphic" in2="effect1_dropShadow_228_446" result="shape"/>
<feGaussianBlur stdDeviation="1" result="effect2_foregroundBlur_228_446"/>
</filter>
</defs>
</svg>
