<svg width="60" height="30" viewBox="0 0 60 30" fill="none" xmlns="http://www.w3.org/2000/svg">
<mask id="path-1-inside-1_110_591" fill="white">
<path fill-rule="evenodd" clip-rule="evenodd" d="M57.8034 0C59.0165 0 60 0.983468 60 2.19664C60 3.40981 59.0165 4.39328 57.8034 4.39328H22.0728C20.4506 4.39328 18.989 5.37311 18.3727 6.87376L11.6132 23.3337C11.9407 23.295 12.2683 23.2151 12.5891 23.091L20.6055 19.9902C21.9354 19.4758 23.4246 20.1795 23.8715 21.5337C24.2898 22.8008 23.6367 24.1731 22.3896 24.6476L10.4194 29.2018C8.45455 29.9493 6.24708 29.048 5.367 27.1388L0.204521 15.9399C-0.310749 14.8221 0.181576 13.498 1.30196 12.9883C2.40683 12.4858 3.71006 12.9639 4.22768 14.0617L7.53067 21.0672C7.5796 21.171 7.63246 21.2717 7.68899 21.3693L15.446 2.48048C16.0622 0.979828 17.5238 0 19.1461 0H57.8034Z"/>
</mask>
<path fill-rule="evenodd" clip-rule="evenodd" d="M57.8034 0C59.0165 0 60 0.983468 60 2.19664C60 3.40981 59.0165 4.39328 57.8034 4.39328H22.0728C20.4506 4.39328 18.989 5.37311 18.3727 6.87376L11.6132 23.3337C11.9407 23.295 12.2683 23.2151 12.5891 23.091L20.6055 19.9902C21.9354 19.4758 23.4246 20.1795 23.8715 21.5337C24.2898 22.8008 23.6367 24.1731 22.3896 24.6476L10.4194 29.2018C8.45455 29.9493 6.24708 29.048 5.367 27.1388L0.204521 15.9399C-0.310749 14.8221 0.181576 13.498 1.30196 12.9883C2.40683 12.4858 3.71006 12.9639 4.22768 14.0617L7.53067 21.0672C7.5796 21.171 7.63246 21.2717 7.68899 21.3693L15.446 2.48048C16.0622 0.979828 17.5238 0 19.1461 0H57.8034Z" fill="white"/>
<path d="M18.3727 6.87376L19.2977 7.25364V7.25364L18.3727 6.87376ZM11.6132 23.3337L11.7304 24.3268L10.0425 24.5259L10.6882 22.9538L11.6132 23.3337ZM12.5891 23.091L12.9499 24.0236V24.0236L12.5891 23.091ZM20.6055 19.9902L20.2447 19.0575L20.6055 19.9902ZM23.8715 21.5337L22.9219 21.8471V21.8471L23.8715 21.5337ZM22.3896 24.6476L22.034 23.713L22.3896 24.6476ZM10.4194 29.2018L10.775 30.1364L10.4194 29.2018ZM5.367 27.1388L4.45884 27.5575V27.5575L5.367 27.1388ZM0.204521 15.9399L1.11267 15.5212L0.204521 15.9399ZM1.30196 12.9883L0.887894 12.0781H0.887897L1.30196 12.9883ZM4.22768 14.0617L3.32318 14.4882V14.4882L4.22768 14.0617ZM7.53067 21.0672L8.43518 20.6407V20.6408L7.53067 21.0672ZM7.68899 21.3693L8.61403 21.7492L7.84208 23.6289L6.82365 21.8705L7.68899 21.3693ZM15.446 2.48048L16.371 2.86036V2.86036L15.446 2.48048ZM59 2.19664C59 1.53575 58.4642 1 57.8034 1V-1C59.5688 -1 61 0.431183 61 2.19664H59ZM57.8034 3.39328C58.4642 3.39328 59 2.85752 59 2.19664H61C61 3.9621 59.5688 5.39328 57.8034 5.39328V3.39328ZM22.0728 3.39328H57.8034V5.39328H22.0728V3.39328ZM17.4477 6.49388C18.218 4.61806 20.045 3.39328 22.0728 3.39328V5.39328C20.8561 5.39328 19.7599 6.12815 19.2977 7.25364L17.4477 6.49388ZM10.6882 22.9538L17.4477 6.49388L19.2977 7.25364L12.5382 23.7136L10.6882 22.9538ZM12.9499 24.0236C12.55 24.1783 12.1405 24.2784 11.7304 24.3268L11.496 22.3406C11.7408 22.3117 11.9866 22.2518 12.2284 22.1583L12.9499 24.0236ZM20.9663 20.9228L12.9499 24.0236L12.2284 22.1583L20.2447 19.0575L20.9663 20.9228ZM22.9219 21.8471C22.6542 21.0361 21.7626 20.6148 20.9663 20.9228L20.2447 19.0575C22.1082 18.3367 24.1949 19.3229 24.8211 21.2203L22.9219 21.8471ZM22.034 23.713C22.7811 23.4287 23.1725 22.6064 22.9219 21.8471L24.8211 21.2202C25.407 22.9953 24.4922 24.9175 22.7452 25.5822L22.034 23.713ZM10.0638 28.2671L22.034 23.713L22.7452 25.5822L10.775 30.1364L10.0638 28.2671ZM6.27515 26.7202C6.93513 28.1519 8.59035 28.8277 10.0638 28.2671L10.775 30.1364C8.31875 31.0709 5.55903 29.9441 4.45884 27.5575L6.27515 26.7202ZM1.11267 15.5212L6.27515 26.7202L4.45884 27.5575L-0.703632 16.3585L1.11267 15.5212ZM1.71603 13.8986C1.10012 14.1788 0.829445 14.9068 1.11267 15.5212L-0.703632 16.3585C-1.45094 14.7373 -0.736969 12.8172 0.887894 12.0781L1.71603 13.8986ZM3.32318 14.4882C3.03882 13.8851 2.32305 13.6225 1.71602 13.8986L0.887897 12.0781C2.4906 11.349 4.3813 12.0427 5.13219 13.6353L3.32318 14.4882ZM6.62616 21.4937L3.32318 14.4882L5.13219 13.6353L8.43518 20.6407L6.62616 21.4937ZM6.82365 21.8705C6.75305 21.7486 6.68711 21.6229 6.62616 21.4937L8.43518 20.6408C8.47208 20.719 8.51187 20.7948 8.55433 20.8681L6.82365 21.8705ZM16.371 2.86036L8.61403 21.7492L6.76395 20.9895L14.5209 2.10061L16.371 2.86036ZM19.1461 1C17.9294 1 16.8332 1.73487 16.371 2.86036L14.5209 2.10061C15.2912 0.224785 17.1183 -1 19.1461 -1V1ZM57.8034 1H19.1461V-1H57.8034V1Z" fill="#2AABFC" mask="url(#path-1-inside-1_110_591)"/>
</svg>
