<svg width="60" height="30" viewBox="0 0 60 30" fill="none" xmlns="http://www.w3.org/2000/svg">
<mask id="path-1-inside-1_110_569" fill="white">
<path fill-rule="evenodd" clip-rule="evenodd" d="M2.19507 0C0.982767 0 0 0.982767 0 2.19507C0 3.40738 0.98277 4.39014 2.19507 4.39014H37.9281C39.5499 4.39014 41.0113 5.36953 41.6278 6.86969L48.3867 23.3164C48.0593 23.2778 47.7317 23.1979 47.411 23.0739L39.3938 19.975C38.0645 19.4612 36.5758 20.1647 36.1289 21.518C35.7106 22.7841 36.3632 24.1552 37.6096 24.6291L49.5807 29.1804C51.5457 29.9275 53.7538 29.026 54.6344 27.117L59.7954 15.9291C60.3109 14.8116 59.8188 13.4879 58.6983 12.9786C57.5935 12.4764 56.2901 12.9546 55.7723 14.0522L52.4707 21.0497C52.4214 21.1542 52.3681 21.2556 52.3111 21.3538L44.5546 2.47955C43.9381 0.97939 42.4767 0 40.8548 0H2.19507Z"/>
</mask>
<path fill-rule="evenodd" clip-rule="evenodd" d="M2.19507 0C0.982767 0 0 0.982767 0 2.19507C0 3.40738 0.98277 4.39014 2.19507 4.39014H37.9281C39.5499 4.39014 41.0113 5.36953 41.6278 6.86969L48.3867 23.3164C48.0593 23.2778 47.7317 23.1979 47.411 23.0739L39.3938 19.975C38.0645 19.4612 36.5758 20.1647 36.1289 21.518C35.7106 22.7841 36.3632 24.1552 37.6096 24.6291L49.5807 29.1804C51.5457 29.9275 53.7538 29.026 54.6344 27.117L59.7954 15.9291C60.3109 14.8116 59.8188 13.4879 58.6983 12.9786C57.5935 12.4764 56.2901 12.9546 55.7723 14.0522L52.4707 21.0497C52.4214 21.1542 52.3681 21.2556 52.3111 21.3538L44.5546 2.47955C43.9381 0.97939 42.4767 0 40.8548 0H2.19507Z" fill="white"/>
<path d="M41.6278 6.86969L42.5528 6.48958L41.6278 6.86969ZM48.3867 23.3164L48.2697 24.3095L49.9578 24.5085L49.3117 22.9363L48.3867 23.3164ZM47.411 23.0739L47.7715 22.1412V22.1412L47.411 23.0739ZM39.3938 19.975L39.7544 19.0423L39.3938 19.975ZM36.1289 21.518L37.0784 21.8316L36.1289 21.518ZM37.6096 24.6291L37.965 23.6943L37.6096 24.6291ZM49.5807 29.1804L49.9361 28.2457L49.5807 29.1804ZM54.6344 27.117L55.5424 27.5359L54.6344 27.117ZM59.7954 15.9291L60.7034 16.348V16.348L59.7954 15.9291ZM58.6983 12.9786L59.1122 12.0683L59.1122 12.0683L58.6983 12.9786ZM55.7723 14.0522L56.6766 14.4789L56.6766 14.4789L55.7723 14.0522ZM52.4707 21.0497L53.3751 21.4765L53.3751 21.4765L52.4707 21.0497ZM52.3111 21.3538L51.3862 21.7339L52.1575 23.6109L53.176 21.8557L52.3111 21.3538ZM44.5546 2.47955L45.4795 2.09944V2.09944L44.5546 2.47955ZM1 2.19507C1 1.53505 1.53505 1 2.19507 1V-1C0.430483 -1 -1 0.430482 -1 2.19507H1ZM2.19507 3.39014C1.53505 3.39014 1 2.85509 1 2.19507H-1C-1 3.95966 0.430487 5.39014 2.19507 5.39014V3.39014ZM37.9281 3.39014H2.19507V5.39014H37.9281V3.39014ZM42.5528 6.48958C41.7821 4.61438 39.9554 3.39014 37.9281 3.39014V5.39014C39.1445 5.39014 40.2405 6.12469 40.7029 7.24981L42.5528 6.48958ZM49.3117 22.9363L42.5528 6.48958L40.7029 7.24981L47.4618 23.6965L49.3117 22.9363ZM47.0504 24.0066C47.4502 24.1612 47.8596 24.2612 48.2697 24.3095L48.5038 22.3233C48.259 22.2944 48.0133 22.2346 47.7715 22.1412L47.0504 24.0066ZM39.0333 20.9078L47.0504 24.0067L47.7715 22.1412L39.7544 19.0423L39.0333 20.9078ZM37.0784 21.8316C37.346 21.0213 38.2374 20.6001 39.0333 20.9078L39.7544 19.0423C37.8917 18.3223 35.8056 19.3081 35.1793 21.2043L37.0784 21.8316ZM37.965 23.6943C37.2187 23.4106 36.828 22.5897 37.0784 21.8316L35.1793 21.2043C34.5933 22.9786 35.5077 24.8997 37.2542 25.5638L37.965 23.6943ZM49.9361 28.2457L37.965 23.6943L37.2542 25.5638L49.2253 30.1151L49.9361 28.2457ZM53.7263 26.6981C53.0659 28.1299 51.4099 28.806 49.9361 28.2457L49.2253 30.1151C51.6816 31.049 54.4417 29.9221 55.5424 27.5359L53.7263 26.6981ZM58.8873 15.5103L53.7263 26.6981L55.5424 27.5359L60.7034 16.348L58.8873 15.5103ZM58.2845 13.889C58.9002 14.1688 59.1706 14.8962 58.8873 15.5103L60.7034 16.348C61.4512 14.727 60.7373 12.807 59.1122 12.0683L58.2845 13.889ZM56.6766 14.4789C56.9612 13.8758 57.6774 13.613 58.2845 13.889L59.1122 12.0683C57.5096 11.3398 55.619 12.0334 54.8679 13.6255L56.6766 14.4789ZM53.3751 21.4765L56.6766 14.4789L54.8679 13.6255L51.5663 20.623L53.3751 21.4765ZM53.176 21.8557C53.2472 21.7331 53.3137 21.6066 53.3751 21.4765L51.5663 20.623C51.5291 20.7018 51.489 20.7782 51.4462 20.8519L53.176 21.8557ZM43.6296 2.85966L51.3862 21.7339L53.2361 20.9737L45.4795 2.09944L43.6296 2.85966ZM40.8548 1C42.0712 1 43.1673 1.73454 43.6296 2.85966L45.4795 2.09944C44.7089 0.224237 42.8822 -1 40.8548 -1V1ZM2.19507 1H40.8548V-1H2.19507V1Z" fill="#FF39BC" mask="url(#path-1-inside-1_110_569)"/>
</svg>
